<svg id="mermaid-1765566178716" width="299.95001220703125" xmlns="http://www.w3.org/2000/svg" style="" viewBox="-246.9796905517578 -35.20000076293945 4004.979736328125 912.44384765625" role="graphics-document document" aria-roledescription="gitGraph" xmlns:xlink="http://www.w3.org/1999/xlink" height="100"><style>#mermaid-1765566178716{font-family:"trebuchet ms",verdana,arial,sans-serif;font-size:16px;fill:#333;}@keyframes edge-animation-frame{from{stroke-dashoffset:0;}}@keyframes dash{to{stroke-dashoffset:0;}}#mermaid-1765566178716 .edge-animation-slow{stroke-dasharray:9,5!important;stroke-dashoffset:900;animation:dash 50s linear infinite;stroke-linecap:round;}#mermaid-1765566178716 .edge-animation-fast{stroke-dasharray:9,5!important;stroke-dashoffset:900;animation:dash 20s linear infinite;stroke-linecap:round;}#mermaid-1765566178716 .error-icon{fill:#552222;}#mermaid-1765566178716 .error-text{fill:#552222;stroke:#552222;}#mermaid-1765566178716 .edge-thickness-normal{stroke-width:1px;}#mermaid-1765566178716 .edge-thickness-thick{stroke-width:3.5px;}#mermaid-1765566178716 .edge-pattern-solid{stroke-dasharray:0;}#mermaid-1765566178716 .edge-thickness-invisible{stroke-width:0;fill:none;}#mermaid-1765566178716 .edge-pattern-dashed{stroke-dasharray:3;}#mermaid-1765566178716 .edge-pattern-dotted{stroke-dasharray:2;}#mermaid-1765566178716 .marker{fill:#333333;stroke:#333333;}#mermaid-1765566178716 .marker.cross{stroke:#333333;}#mermaid-1765566178716 svg{font-family:"trebuchet ms",verdana,arial,sans-serif;font-size:16px;}#mermaid-1765566178716 p{margin:0;}#mermaid-1765566178716 .commit-id,#mermaid-1765566178716 .commit-msg,#mermaid-1765566178716 .branch-label{fill:lightgrey;color:lightgrey;font-family:'trebuchet ms',verdana,arial,sans-serif;font-family:var(--mermaid-font-family);}#mermaid-1765566178716 .branch-label0{fill:#ffffff;}#mermaid-1765566178716 .commit0{stroke:hsl(240, 100%, 46.2745098039%);fill:hsl(240, 100%, 46.2745098039%);}#mermaid-1765566178716 .commit-highlight0{stroke:hsl(60, 100%, 3.7254901961%);fill:hsl(60, 100%, 3.7254901961%);}#mermaid-1765566178716 .label0{fill:hsl(240, 100%, 46.2745098039%);}#mermaid-1765566178716 .arrow0{stroke:hsl(240, 100%, 46.2745098039%);}#mermaid-1765566178716 .branch-label1{fill:black;}#mermaid-1765566178716 .commit1{stroke:hsl(60, 100%, 43.5294117647%);fill:hsl(60, 100%, 43.5294117647%);}#mermaid-1765566178716 .commit-highlight1{stroke:rgb(0, 0, 160.5);fill:rgb(0, 0, 160.5);}#mermaid-1765566178716 .label1{fill:hsl(60, 100%, 43.5294117647%);}#mermaid-1765566178716 .arrow1{stroke:hsl(60, 100%, 43.5294117647%);}#mermaid-1765566178716 .branch-label2{fill:black;}#mermaid-1765566178716 .commit2{stroke:hsl(80, 100%, 46.2745098039%);fill:hsl(80, 100%, 46.2745098039%);}#mermaid-1765566178716 .commit-highlight2{stroke:rgb(48.8333333334, 0, 146.5000000001);fill:rgb(48.8333333334, 0, 146.5000000001);}#mermaid-1765566178716 .label2{fill:hsl(80, 100%, 46.2745098039%);}#mermaid-1765566178716 .arrow2{stroke:hsl(80, 100%, 46.2745098039%);}#mermaid-1765566178716 .branch-label3{fill:#ffffff;}#mermaid-1765566178716 .commit3{stroke:hsl(210, 100%, 46.2745098039%);fill:hsl(210, 100%, 46.2745098039%);}#mermaid-1765566178716 .commit-highlight3{stroke:rgb(146.5000000001, 73.2500000001, 0);fill:rgb(146.5000000001, 73.2500000001, 0);}#mermaid-1765566178716 .label3{fill:hsl(210, 100%, 46.2745098039%);}#mermaid-1765566178716 .arrow3{stroke:hsl(210, 100%, 46.2745098039%);}#mermaid-1765566178716 .branch-label4{fill:black;}#mermaid-1765566178716 .commit4{stroke:hsl(180, 100%, 46.2745098039%);fill:hsl(180, 100%, 46.2745098039%);}#mermaid-1765566178716 .commit-highlight4{stroke:rgb(146.5000000001, 0, 0);fill:rgb(146.5000000001, 0, 0);}#mermaid-1765566178716 .label4{fill:hsl(180, 100%, 46.2745098039%);}#mermaid-1765566178716 .arrow4{stroke:hsl(180, 100%, 46.2745098039%);}#mermaid-1765566178716 .branch-label5{fill:black;}#mermaid-1765566178716 .commit5{stroke:hsl(150, 100%, 46.2745098039%);fill:hsl(150, 100%, 46.2745098039%);}#mermaid-1765566178716 .commit-highlight5{stroke:rgb(146.5000000001, 0, 73.2500000001);fill:rgb(146.5000000001, 0, 73.2500000001);}#mermaid-1765566178716 .label5{fill:hsl(150, 100%, 46.2745098039%);}#mermaid-1765566178716 .arrow5{stroke:hsl(150, 100%, 46.2745098039%);}#mermaid-1765566178716 .branch-label6{fill:black;}#mermaid-1765566178716 .commit6{stroke:hsl(300, 100%, 46.2745098039%);fill:hsl(300, 100%, 46.2745098039%);}#mermaid-1765566178716 .commit-highlight6{stroke:rgb(0, 146.5000000001, 0);fill:rgb(0, 146.5000000001, 0);}#mermaid-1765566178716 .label6{fill:hsl(300, 100%, 46.2745098039%);}#mermaid-1765566178716 .arrow6{stroke:hsl(300, 100%, 46.2745098039%);}#mermaid-1765566178716 .branch-label7{fill:black;}#mermaid-1765566178716 .commit7{stroke:hsl(0, 100%, 46.2745098039%);fill:hsl(0, 100%, 46.2745098039%);}#mermaid-1765566178716 .commit-highlight7{stroke:rgb(0, 146.5000000001, 146.5000000001);fill:rgb(0, 146.5000000001, 146.5000000001);}#mermaid-1765566178716 .label7{fill:hsl(0, 100%, 46.2745098039%);}#mermaid-1765566178716 .arrow7{stroke:hsl(0, 100%, 46.2745098039%);}#mermaid-1765566178716 .branch{stroke-width:1;stroke:#333333;stroke-dasharray:2;}#mermaid-1765566178716 .commit-label{font-size:10px;fill:#000021;}#mermaid-1765566178716 .commit-label-bkg{font-size:10px;fill:#ffffde;opacity:0.5;}#mermaid-1765566178716 .tag-label{font-size:10px;fill:#131300;}#mermaid-1765566178716 .tag-label-bkg{fill:#ECECFF;stroke:hsl(240, 60%, 86.2745098039%);}#mermaid-1765566178716 .tag-hole{fill:#333;}#mermaid-1765566178716 .commit-merge{stroke:#ECECFF;fill:#ECECFF;}#mermaid-1765566178716 .commit-reverse{stroke:#ECECFF;fill:#ECECFF;stroke-width:3;}#mermaid-1765566178716 .commit-highlight-inner{stroke:#ECECFF;fill:#ECECFF;}#mermaid-1765566178716 .arrow{stroke-width:8;stroke-linecap:round;fill:none;}#mermaid-1765566178716 .gitTitleText{text-anchor:middle;font-size:18px;fill:#333;}#mermaid-1765566178716 :root{--mermaid-font-family:"trebuchet ms",verdana,arial,sans-serif;}</style><g/><g class="commit-bullets"/><g class="commit-labels"/><g><line x1="0" y1="0" x2="3750" y2="0" class="branch branch0"/><rect class="branchLabelBkg label0" rx="4" ry="4" x="-69" y="-1.1999998092651367" width="53" height="22.399999618530273" transform="translate(-19, -9.199999809265137)"/><g class="branchLabel"><g class="label branch-label0" transform="translate(-79, -10.199999809265137)"><text><tspan xml:space="preserve" dy="1em" x="0" class="row">main</tspan></text></g></g><line x1="0" y1="90" x2="3750" y2="90" class="branch branch1"/><rect class="branchLabelBkg label1" rx="4" ry="4" x="-59.640625" y="-1.1999998092651367" width="43.640625" height="22.399999618530273" transform="translate(-19, 80.80000019073486)"/><g class="branchLabel"><g class="label branch-label1" transform="translate(-69.640625, 79.80000019073486)"><text><tspan xml:space="preserve" dy="1em" x="0" class="row">dev</tspan></text></g></g><line x1="0" y1="180" x2="3750" y2="180" class="branch branch2"/><rect class="branchLabelBkg label2" rx="4" ry="4" x="-186.5500030517578" y="-1.1999998092651367" width="170.5500030517578" height="22.399999618530273" transform="translate(-19, 170.80000019073486)"/><g class="branchLabel"><g class="label branch-label2" transform="translate(-196.5500030517578, 169.80000019073486)"><text><tspan xml:space="preserve" dy="1em" x="0" class="row">fix/fix-cinema-phone</tspan></text></g></g><line x1="0" y1="270" x2="3750" y2="270" class="branch branch3"/><rect class="branchLabelBkg label3" rx="4" ry="4" x="-109.88750457763672" y="-1.1999998092651367" width="93.88750457763672" height="22.399999618530273" transform="translate(-19, 260.80000019073486)"/><g class="branchLabel"><g class="label branch-label3" transform="translate(-119.88750457763672, 259.80000019073486)"><text><tspan xml:space="preserve" dy="1em" x="0" class="row">public-app</tspan></text></g></g><line x1="0" y1="360" x2="3750" y2="360" class="branch branch4"/><rect class="branchLabelBkg label4" rx="4" ry="4" x="-90.0875015258789" y="-1.1999998092651367" width="74.0875015258789" height="22.399999618530273" transform="translate(-19, 350.80000019073486)"/><g class="branchLabel"><g class="label branch-label4" transform="translate(-100.0875015258789, 349.80000019073486)"><text><tspan xml:space="preserve" dy="1em" x="0" class="row">fix/cors</tspan></text></g></g><line x1="0" y1="450" x2="3750" y2="450" class="branch branch5"/><rect class="branchLabelBkg label5" rx="4" ry="4" x="-219.9796905517578" y="-1.1999998092651367" width="203.9796905517578" height="22.399999618530273" transform="translate(-19, 440.80000019073486)"/><g class="branchLabel"><g class="label branch-label5" transform="translate(-229.9796905517578, 439.80000019073486)"><text><tspan xml:space="preserve" dy="1em" x="0" class="row">feature/manage-schedule</tspan></text></g></g><line x1="0" y1="540" x2="3750" y2="540" class="branch branch6"/><rect class="branchLabelBkg label6" rx="4" ry="4" x="-193.58750915527344" y="-1.1999998092651367" width="177.58750915527344" height="22.399999618530273" transform="translate(-19, 530.8000001907349)"/><g class="branchLabel"><g class="label branch-label6" transform="translate(-203.58750915527344, 529.8000001907349)"><text><tspan xml:space="preserve" dy="1em" x="0" class="row">feature/manage-users</tspan></text></g></g><line x1="0" y1="630" x2="3750" y2="630" class="branch branch7"/><rect class="branchLabelBkg label7" rx="4" ry="4" x="-123.92500305175781" y="-1.1999998092651367" width="107.92500305175781" height="22.399999618530273" transform="translate(-19, 620.8000001907349)"/><g class="branchLabel"><g class="label branch-label7" transform="translate(-133.9250030517578, 619.8000001907349)"><text><tspan xml:space="preserve" dy="1em" x="0" class="row">fix/schedule</tspan></text></g></g><line x1="0" y1="720" x2="3750" y2="720" class="branch branch0"/><rect class="branchLabelBkg label0" rx="4" ry="4" x="-139.3234405517578" y="-1.1999998092651367" width="123.32344055175781" height="22.399999618530273" transform="translate(-19, 710.8000001907349)"/><g class="branchLabel"><g class="label branch-label0" transform="translate(-149.3234405517578, 709.8000001907349)"><text><tspan xml:space="preserve" dy="1em" x="0" class="row">fix/updateHall</tspan></text></g></g><line x1="0" y1="810" x2="3750" y2="810" class="branch branch1"/><rect class="branchLabelBkg label1" rx="4" ry="4" x="-50.11406326293945" y="-1.1999998092651367" width="34.11406326293945" height="22.399999618530273" transform="translate(-19, 800.8000001907349)"/><g class="branchLabel"><g class="label branch-label1" transform="translate(-60.11406326293945, 799.8000001907349)"><text><tspan xml:space="preserve" dy="1em" x="0" class="row">qr</tspan></text></g></g></g><g class="commit-arrows"><path d="M 10 0 L 60 0" class="arrow arrow0"/><path d="M 60 0 L 60 70 A 20 20, 0, 0, 0, 80 90 L 110 90" class="arrow arrow1"/><path d="M 110 90 L 160 90" class="arrow arrow1"/><path d="M 160 90 L 210 90" class="arrow arrow1"/><path d="M 210 90 L 260 90" class="arrow arrow1"/><path d="M 260 90 L 310 90" class="arrow arrow1"/><path d="M 310 90 L 360 90" class="arrow arrow1"/><path d="M 360 90 L 410 90" class="arrow arrow1"/><path d="M 410 90 L 460 90" class="arrow arrow1"/><path d="M 460 90 L 510 90" class="arrow arrow1"/><path d="M 510 90 L 560 90" class="arrow arrow1"/><path d="M 60 0 L 610 0" class="arrow arrow0"/><path d="M 610 0 L 660 0" class="arrow arrow0"/><path d="M 660 0 L 710 0" class="arrow arrow0"/><path d="M 710 0 L 760 0" class="arrow arrow0"/><path d="M 560 90 L 740 90 A 20 20, 0, 0, 0, 760 70 L 760 0" class="arrow arrow1"/><path d="M 760 0 L 810 0" class="arrow arrow0"/><path d="M 810 0 L 860 0" class="arrow arrow0"/><path d="M 560 90 L 910 90" class="arrow arrow1"/><path d="M 910 90 L 960 90" class="arrow arrow1"/><path d="M 960 90 L 1010 90" class="arrow arrow1"/><path d="M 1010 90 L 1060 90" class="arrow arrow1"/><path d="M 1060 90 L 1110 90" class="arrow arrow1"/><path d="M 860 0 L 1160 0" class="arrow arrow0"/><path d="M 1110 90 L 1140 90 A 20 20, 0, 0, 0, 1160 70 L 1160 0" class="arrow arrow1"/><path d="M 1110 90 L 1210 90" class="arrow arrow1"/><path d="M 1160 0 L 1260 0" class="arrow arrow0"/><path d="M 1210 90 L 1310 90" class="arrow arrow1"/><path d="M 1310 90 L 1360 90" class="arrow arrow1"/><path d="M 1360 90 L 1410 90" class="arrow arrow1"/><path d="M 1410 90 L 1460 90" class="arrow arrow1"/><path d="M 1260 0 L 1510 0" class="arrow arrow0"/><path d="M 1460 90 L 1490 90 A 20 20, 0, 0, 0, 1510 70 L 1510 0" class="arrow arrow1"/><path d="M 1510 0 L 1560 0" class="arrow arrow0"/><path d="M 1560 0 L 1560 160 A 20 20, 0, 0, 0, 1580 180 L 1610 180" class="arrow arrow2"/><path d="M 1560 0 L 1660 0" class="arrow arrow0"/><path d="M 1610 180 L 1640 180 A 20 20, 0, 0, 0, 1660 160 L 1660 0" class="arrow arrow2"/><path d="M 1660 0 L 1710 0" class="arrow arrow0"/><path d="M 1710 0 L 1760 0" class="arrow arrow0"/><path d="M 1760 0 L 1810 0" class="arrow arrow0"/><path d="M 1810 0 L 1860 0" class="arrow arrow0"/><path d="M 1860 0 L 1860 250 A 20 20, 0, 0, 0, 1880 270 L 1910 270" class="arrow arrow3"/><path d="M 1910 270 L 1960 270" class="arrow arrow3"/><path d="M 1960 270 L 2010 270" class="arrow arrow3"/><path d="M 2010 270 L 2060 270" class="arrow arrow3"/><path d="M 2060 270 L 2110 270" class="arrow arrow3"/><path d="M 2110 270 L 2160 270" class="arrow arrow3"/><path d="M 1860 0 L 2210 0" class="arrow arrow0"/><path d="M 2160 270 L 2190 270 A 20 20, 0, 0, 0, 2210 250 L 2210 0" class="arrow arrow3"/><path d="M 2210 0 L 2210 340 A 20 20, 0, 0, 0, 2230 360 L 2260 360" class="arrow arrow4"/><path d="M 2210 0 L 2310 0" class="arrow arrow0"/><path d="M 2260 360 L 2290 360 A 20 20, 0, 0, 0, 2310 340 L 2310 0" class="arrow arrow4"/><path d="M 2310 0 L 2310 430 A 20 20, 0, 0, 0, 2330 450 L 2360 450" class="arrow arrow5"/><path d="M 2310 0 L 2410 0" class="arrow arrow0"/><path d="M 2360 450 L 2390 450 A 20 20, 0, 0, 0, 2410 430 L 2410 0" class="arrow arrow5"/><path d="M 1460 90 L 2460 90" class="arrow arrow1"/><path d="M 2460 90 L 2510 90" class="arrow arrow1"/><path d="M 2410 0 L 2560 0" class="arrow arrow0"/><path d="M 2510 90 L 2540 90 A 20 20, 0, 0, 0, 2560 70 L 2560 0" class="arrow arrow1"/><path d="M 2160 270 L 2610 270" class="arrow arrow3"/><path d="M 2560 0 L 2590 0 A 20 20, 0, 0, 1, 2610 20 L 2610 270" class="arrow arrow0"/><path d="M 2560 0 L 2660 0" class="arrow arrow0"/><path d="M 2610 270 L 2640 270 A 20 20, 0, 0, 0, 2660 250 L 2660 0" class="arrow arrow3"/><path d="M 2510 90 L 2710 90" class="arrow arrow1"/><path d="M 2710 90 L 2760 90" class="arrow arrow1"/><path d="M 2760 90 L 2810 90" class="arrow arrow1"/><path d="M 2810 90 L 2810 520 A 20 20, 0, 0, 0, 2830 540 L 2860 540" class="arrow arrow6"/><path d="M 2860 540 L 2910 540" class="arrow arrow6"/><path d="M 2910 540 L 2960 540" class="arrow arrow6"/><path d="M 2660 0 L 3010 0" class="arrow arrow0"/><path d="M 2960 540 L 2990 540 A 20 20, 0, 0, 0, 3010 520 L 3010 0" class="arrow arrow6"/><path d="M 2810 90 L 3060 90" class="arrow arrow1"/><path d="M 3010 0 L 3040 0 A 20 20, 0, 0, 1, 3060 20 L 3060 90" class="arrow arrow0"/><path d="M 3060 90 L 3110 90" class="arrow arrow1"/><path d="M 3010 0 L 3160 0" class="arrow arrow0"/><path d="M 3110 90 L 3140 90 A 20 20, 0, 0, 0, 3160 70 L 3160 0" class="arrow arrow1"/><path d="M 3160 0 L 3210 0" class="arrow arrow0"/><path d="M 3210 0 L 3210 610 A 20 20, 0, 0, 0, 3230 630 L 3260 630" class="arrow arrow7"/><path d="M 3210 0 L 3310 0" class="arrow arrow0"/><path d="M 3260 630 L 3290 630 A 20 20, 0, 0, 0, 3310 610 L 3310 0" class="arrow arrow7"/><path d="M 3310 0 L 3360 0" class="arrow arrow0"/><path d="M 3360 0 L 3360 700 A 20 20, 0, 0, 0, 3380 720 L 3410 720" class="arrow arrow0"/><path d="M 3410 720 L 3460 720" class="arrow arrow0"/><path d="M 3460 720 L 3510 720" class="arrow arrow0"/><path d="M 3360 0 L 3560 0" class="arrow arrow0"/><path d="M 3510 720 L 3540 720 A 20 20, 0, 0, 0, 3560 700 L 3560 0" class="arrow arrow0"/><path d="M 3560 0 L 3560 790 A 20 20, 0, 0, 0, 3580 810 L 3610 810" class="arrow arrow1"/><path d="M 3560 0 L 3660 0" class="arrow arrow0"/><path d="M 3610 810 L 3640 810 A 20 20, 0, 0, 0, 3660 790 L 3660 0" class="arrow arrow1"/><path d="M 3660 0 L 3710 0" class="arrow arrow0"/></g><g class="commit-bullets"><circle cx="10" cy="0" r="10" class="commit 76750f7 Initial commit commit0"/><circle cx="60" cy="0" r="10" class="commit 30304e1 Azure App Service config commit0"/><circle cx="110" cy="90" r="10" class="commit e115699 ignore .env commit1"/><circle cx="160" cy="90" r="10" class="commit 8c61c24 auth scaffold commit1"/><circle cx="210" cy="90" r="10" class="commit cf1e92e auth: return JWT commit1"/><circle cx="260" cy="90" r="10" class="commit 5895fd7 dashboard router commit1"/><circle cx="310" cy="90" r="10" class="commit 9ae5415 delete trash commit1"/><circle cx="360" cy="90" r="10" class="commit 90ce3ef city/cinema/hall CRUD commit1"/><circle cx="410" cy="90" r="10" class="commit 05a3f54 hall activation commit1"/><circle cx="460" cy="90" r="10" class="commit 403f6ee cinema CRUD commit1"/><circle cx="510" cy="90" r="10" class="commit 4e028d3 modify gitignore commit1"/><circle cx="560" cy="90" r="10" class="commit 2514580 restore gitignore commit1"/><circle cx="610" cy="0" r="10" class="commit ec2367c fix workflow commit0"/><circle cx="660" cy="0" r="10" class="commit ff7a8ad trigger deployment commit0"/><circle cx="710" cy="0" r="10" class="commit 604c568 publish profile auth commit0"/><circle cx="760" cy="0" r="9" class="commit 15-634b0b1 commit0"/><circle cx="760" cy="0" r="6" class="commit commit-merge 15-634b0b1 commit0"/><circle cx="810" cy="0" r="10" class="commit 32c0a87 fix build commit0"/><circle cx="860" cy="0" r="10" class="commit f282a64 add routes commit0"/><circle cx="910" cy="90" r="10" class="commit 669582e movie endpoints commit1"/><circle cx="960" cy="90" r="10" class="commit 4ddd679 payments routes commit1"/><circle cx="1010" cy="90" r="10" class="commit 9fd6f06 stripe + showtime commit1"/><circle cx="1060" cy="90" r="10" class="commit 09376e3 seats router commit1"/><circle cx="1110" cy="90" r="10" class="commit 99ae9da stripe webhook fix commit1"/><circle cx="1160" cy="0" r="9" class="commit 23-6a48fa1 commit0"/><circle cx="1160" cy="0" r="6" class="commit commit-merge 23-6a48fa1 commit0"/><circle cx="1210" cy="90" r="10" class="commit 686597f merge main commit1"/><circle cx="1260" cy="0" r="10" class="commit 44041a1 CORS config commit0"/><circle cx="1310" cy="90" r="10" class="commit aed7289 cinema phone commit1"/><circle cx="1360" cy="90" r="10" class="commit d3b07b5 change password commit1"/><circle cx="1410" cy="90" r="10" class="commit 0fb3abc halls active bool commit1"/><circle cx="1460" cy="90" r="10" class="commit caa4158 PUT halls active commit1"/><circle cx="1510" cy="0" r="9" class="commit 30-90d792f commit0"/><circle cx="1510" cy="0" r="6" class="commit commit-merge 30-90d792f commit0"/><circle cx="1560" cy="0" r="10" class="commit 99df8e7 deploy commit0"/><circle cx="1610" cy="180" r="10" class="commit 978324c city + cinema fix commit2"/><circle cx="1660" cy="0" r="9" class="commit 33-374e972 commit0"/><circle cx="1660" cy="0" r="6" class="commit commit-merge 33-374e972 commit0"/><circle cx="1710" cy="0" r="10" class="commit 78b4654 npm start fix commit0"/><circle cx="1760" cy="0" r="10" class="commit 867609d health checks commit0"/><circle cx="1810" cy="0" r="10" class="commit 2660a9d pool import fix commit0"/><circle cx="1860" cy="0" r="10" class="commit 6455496 JWT + DB checks commit0"/><circle cx="1910" cy="270" r="10" class="commit 3956e77 client endpoints commit3"/><circle cx="1960" cy="270" r="10" class="commit f584d0b GET movies commit3"/><circle cx="2010" cy="270" r="10" class="commit 95c781f GET showtime commit3"/><circle cx="2060" cy="270" r="10" class="commit e0b11ab client.ts commit3"/><circle cx="2110" cy="270" r="10" class="commit 1d2468d GET movies filter commit3"/><circle cx="2160" cy="270" r="10" class="commit 5fe0d70 GET showtimes 7days commit3"/><circle cx="2210" cy="0" r="9" class="commit 44-79c8687 commit0"/><circle cx="2210" cy="0" r="6" class="commit commit-merge 44-79c8687 commit0"/><circle cx="2260" cy="360" r="10" class="commit f9c0177 fix cors commit4"/><circle cx="2310" cy="0" r="9" class="commit 46-03d0405 commit0"/><circle cx="2310" cy="0" r="6" class="commit commit-merge 46-03d0405 commit0"/><circle cx="2360" cy="450" r="10" class="commit 59aeb04 manage showings commit5"/><circle cx="2410" cy="0" r="9" class="commit 48-6c8194f commit0"/><circle cx="2410" cy="0" r="6" class="commit commit-merge 48-6c8194f commit0"/><circle cx="2460" cy="90" r="10" class="commit f99a85d showtime prices commit1"/><circle cx="2510" cy="90" r="10" class="commit 32592b4 fetch showtimes commit1"/><circle cx="2560" cy="0" r="9" class="commit 51-4bc9a82 commit0"/><circle cx="2560" cy="0" r="6" class="commit commit-merge 51-4bc9a82 commit0"/><circle cx="2610" cy="270" r="9" class="commit 52-9c4dea3 commit3"/><circle cx="2610" cy="270" r="6" class="commit commit-merge 52-9c4dea3 commit3"/><circle cx="2660" cy="0" r="9" class="commit 53-934d499 commit0"/><circle cx="2660" cy="0" r="6" class="commit commit-merge 53-934d499 commit0"/><circle cx="2710" cy="90" r="10" class="commit 23a2755 routers bug commit1"/><circle cx="2760" cy="90" r="10" class="commit 3f3590c email confirmation commit1"/><circle cx="2810" cy="90" r="10" class="commit b68a557 websocket seats commit1"/><circle cx="2860" cy="540" r="10" class="commit 676c343 add admin commit6"/><circle cx="2910" cy="540" r="10" class="commit 5d7596e fix query commit6"/><circle cx="2960" cy="540" r="10" class="commit 81817de users CRUD commit6"/><circle cx="3010" cy="0" r="9" class="commit 60-d577eb1 commit0"/><circle cx="3010" cy="0" r="6" class="commit commit-merge 60-d577eb1 commit0"/><circle cx="3060" cy="90" r="9" class="commit 61-b79796d commit1"/><circle cx="3060" cy="90" r="6" class="commit commit-merge 61-b79796d commit1"/><circle cx="3110" cy="90" r="10" class="commit 577a60c format package.json commit1"/><circle cx="3160" cy="0" r="9" class="commit 63-8f80724 commit0"/><circle cx="3160" cy="0" r="6" class="commit commit-merge 63-8f80724 commit0"/><circle cx="3210" cy="0" r="10" class="commit 0e52b28 handler not router commit0"/><circle cx="3260" cy="630" r="10" class="commit b87436b showtime price commit7"/><circle cx="3310" cy="0" r="9" class="commit 66-69e41cb commit0"/><circle cx="3310" cy="0" r="6" class="commit commit-merge 66-69e41cb commit0"/><circle cx="3360" cy="0" r="10" class="commit 728047f host png commit0"/><circle cx="3410" cy="720" r="10" class="commit d112488 recreate seats commit0"/><circle cx="3460" cy="720" r="10" class="commit 50dcaed fix endpoint commit0"/><circle cx="3510" cy="720" r="10" class="commit 1ab7dd5 seat status commit0"/><circle cx="3560" cy="0" r="9" class="commit 71-016ba20 commit0"/><circle cx="3560" cy="0" r="6" class="commit commit-merge 71-016ba20 commit0"/><circle cx="3610" cy="810" r="10" class="commit 55feb54 qr commit1"/><circle cx="3660" cy="0" r="9" class="commit 73-75bde67 commit0"/><circle cx="3660" cy="0" r="6" class="commit commit-merge 73-75bde67 commit0"/><circle cx="3710" cy="0" r="10" class="commit 4731cc4 fix get cinemas commit0"/></g><g class="commit-labels"><g transform="translate(-50.01257537841797, 44.63756744384765) rotate(-45, 0, 0)"><rect class="commit-label-bkg" x="-42.937599182128906" y="13.5" width="105.87519836425781" height="16"/><text x="-40.937599182128906" y="25" class="commit-label">76750f7 Initial commit</text></g><polygon class="tag-label-bkg" points="&#10;      -12.97666072845459,-17.2  &#10;      -12.97666072845459,-21.2&#10;      -4.97666072845459,-27.2&#10;      24.97666072845459,-27.2&#10;      24.97666072845459,-11.2&#10;      -4.97666072845459,-11.2"/><circle cy="-19.2" cx="-8.97666072845459" r="1.5" class="tag-hole"/><text y="-16" class="tag-label" x="-0.9766607284545898">start</text><g transform="translate(-68.52429138183594, 61.20068176269532) rotate(-45, 50, 0)"><rect class="commit-label-bkg" x="-17.295120239257812" y="13.5" width="154.59024047851562" height="16"/><text x="-15.295120239257812" y="25" class="commit-label">30304e1 Azure App Service config</text></g><g transform="translate(-45.94694473266602, 40.999897918701166) rotate(-45, 100, 90)"><rect class="commit-label-bkg" x="62.41191482543945" y="103.5" width="95.1761703491211" height="16"/><text x="64.41191482543945" y="115" class="commit-label">e115699 ignore .env</text></g><g transform="translate(-48.48522598266601, 43.27099166870117) rotate(-45, 150, 90)"><rect class="commit-label-bkg" x="109.07207107543945" y="103.5" width="101.8558578491211" height="16"/><text x="111.07207107543945" y="115" class="commit-label">8c61c24 auth scaffold</text></g><g transform="translate(-55.36129745483398, 49.42326614379883) rotate(-45, 200, 90)"><rect class="commit-label-bkg" x="150.02460861206055" y="103.5" width="119.9507827758789" height="16"/><text x="152.02460861206055" y="115" class="commit-label">cf1e92e auth: return JWT</text></g><g transform="translate(-55.54558319091797, 49.58815338134766) rotate(-45, 250, 90)"><rect class="commit-label-bkg" x="199.7821273803711" y="103.5" width="120.43574523925781" height="16"/><text x="201.7821273803711" y="115" class="commit-label">5895fd7 dashboard router</text></g><g transform="translate(-47.230929107666014, 42.148726043701174) rotate(-45, 300, 90)"><rect class="commit-label-bkg" x="260.72246170043945" y="103.5" width="98.5550765991211" height="16"/><text x="262.72246170043945" y="115" class="commit-label">9ae5415 delete trash</text></g><g transform="translate(-65.2899136352539, 58.30676483154297) rotate(-45, 350, 90)"><rect class="commit-label-bkg" x="286.9606399536133" y="103.5" width="146.07872009277344" height="16"/><text x="288.9606399536133" y="115" class="commit-label">90ce3ef city/cinema/hall CRUD</text></g><g transform="translate(-50.35182754516602, 44.94110885620117) rotate(-45, 400, 90)"><rect class="commit-label-bkg" x="356.61601638793945" y="103.5" width="106.7679672241211" height="16"/><text x="358.61601638793945" y="115" class="commit-label">05a3f54 hall activation</text></g><g transform="translate(-49.05982986450196, 43.78511093139648) rotate(-45, 450, 90)"><rect class="commit-label-bkg" x="408.31601333618164" y="103.5" width="103.36797332763672" height="16"/><text x="410.31601333618164" y="115" class="commit-label">403f6ee cinema CRUD</text></g><g transform="translate(-54.92897323608399, 49.03644973754883) rotate(-45, 500, 90)"><rect class="commit-label-bkg" x="450.59345626831055" y="103.5" width="118.8130874633789" height="16"/><text x="452.59345626831055" y="115" class="commit-label">4e028d3 modify gitignore</text></g><g transform="translate(-54.931124420166014, 49.038374481201174) rotate(-45, 550, 90)"><rect class="commit-label-bkg" x="500.59062576293945" y="103.5" width="118.8187484741211" height="16"/><text x="502.59062576293945" y="115" class="commit-label">2514580 restore gitignore</text></g><g transform="translate(-47.6530859375, 42.5264453125) rotate(-45, 600, 0)"><rect class="commit-label-bkg" x="560.1669921875" y="13.5" width="99.666015625" height="16"/><text x="562.1669921875" y="25" class="commit-label">ec2367c fix workflow</text></g><g transform="translate(-58.39372772216797, 52.13649322509766) rotate(-45, 650, 0)"><rect class="commit-label-bkg" x="596.0345687866211" y="13.5" width="127.93086242675781" height="16"/><text x="598.0345687866211" y="25" class="commit-label">ff7a8ad trigger deployment</text></g><g transform="translate(-59.72380020141602, 53.32655807495117) rotate(-45, 700, 0)"><rect class="commit-label-bkg" x="644.2844734191895" y="13.5" width="131.4310531616211" height="16"/><text x="646.2844734191895" y="25" class="commit-label">604c568 publish profile auth</text></g><polygon class="tag-label-bkg" points="&#10;      733.4352540969849,-17.2  &#10;      733.4352540969849,-21.2&#10;      741.4352540969849,-27.2&#10;      778.5647459030151,-27.2&#10;      778.5647459030151,-11.2&#10;      741.4352540969849,-11.2"/><circle cy="-19.2" cx="737.4352540969849" r="1.5" class="tag-hole"/><text y="-16" class="tag-label" x="745.4352540969849">v0.1.0</text><g transform="translate(-40.348995513916016, 35.99120651245117) rotate(-45, 800, 0)"><rect class="commit-label-bkg" x="769.7776374816895" y="13.5" width="80.4447250366211" height="16"/><text x="771.7776374816895" y="25" class="commit-label">32c0a87 fix build</text></g><g transform="translate(-44.18083709716797, 39.41969635009765) rotate(-45, 850, 0)"><rect class="commit-label-bkg" x="814.7357406616211" y="13.5" width="90.52851867675781" height="16"/><text x="816.7357406616211" y="25" class="commit-label">f282a64 add routes</text></g><polygon class="tag-label-bkg" points="&#10;      833.6125001907349,-17.2  &#10;      833.6125001907349,-21.2&#10;      841.6125001907349,-27.2&#10;      878.3874998092651,-27.2&#10;      878.3874998092651,-11.2&#10;      841.6125001907349,-11.2"/><circle cy="-19.2" cx="837.6125001907349" r="1.5" class="tag-hole"/><text y="-16" class="tag-label" x="845.6125001907349">v0.0.1</text><g transform="translate(-54.74216522216797, 48.869305725097654) rotate(-45, 900, 90)"><rect class="commit-label-bkg" x="850.8392562866211" y="103.5" width="118.32148742675781" height="16"/><text x="852.8392562866211" y="115" class="commit-label">669582e movie endpoints</text></g><g transform="translate(-55.54714004516602, 49.58954635620117) rotate(-45, 950, 90)"><rect class="commit-label-bkg" x="899.7800788879395" y="103.5" width="120.4398422241211" height="16"/><text x="901.7800788879395" y="115" class="commit-label">4ddd679 payments routes</text></g><g transform="translate(-55.77350723266601, 49.79208541870117) rotate(-45, 1000, 90)"><rect class="commit-label-bkg" x="949.4822273254395" y="103.5" width="121.0355453491211" height="16"/><text x="951.4822273254395" y="115" class="commit-label">9fd6f06 stripe + showtime</text></g><g transform="translate(-47.26648162841797, 42.18053619384766) rotate(-45, 1050, 90)"><rect class="commit-label-bkg" x="1010.6756820678711" y="103.5" width="98.64863586425781" height="16"/><text x="1012.6756820678711" y="115" class="commit-label">09376e3 seats router</text></g><g transform="translate(-58.39528457641602, 52.13788619995117) rotate(-45, 1100, 90)"><rect class="commit-label-bkg" x="1046.0325202941895" y="103.5" width="127.9349594116211" height="16"/><text x="1048.0325202941895" y="115" class="commit-label">99ae9da stripe webhook fix</text></g><polygon class="tag-label-bkg" points="&#10;      1133.6125001907349,-17.2  &#10;      1133.6125001907349,-21.2&#10;      1141.6125001907349,-27.2&#10;      1178.3874998092651,-27.2&#10;      1178.3874998092651,-11.2&#10;      1141.6125001907349,-11.2"/><circle cy="-19.2" cx="1137.6125001907349" r="1.5" class="tag-hole"/><text y="-16" class="tag-label" x="1145.6125001907349">v0.1.1</text><g transform="translate(-45.997042388916014, 41.044722137451174) rotate(-45, 1200, 90)"><rect class="commit-label-bkg" x="1162.3459968566895" y="103.5" width="95.3080062866211" height="16"/><text x="1164.3459968566895" y="115" class="commit-label">686597f merge main</text></g><g transform="translate(-47.332684173583985, 42.23977005004883) rotate(-45, 1250, 0)"><rect class="commit-label-bkg" x="1210.5885734558105" y="13.5" width="98.8228530883789" height="16"/><text x="1212.5885734558105" y="25" class="commit-label">44041a1 CORS config</text></g><polygon class="tag-label-bkg" points="&#10;      1233.4352540969849,-17.2  &#10;      1233.4352540969849,-21.2&#10;      1241.4352540969849,-27.2&#10;      1278.5647459030151,-27.2&#10;      1278.5647459030151,-11.2&#10;      1241.4352540969849,-11.2"/><circle cy="-19.2" cx="1237.4352540969849" r="1.5" class="tag-hole"/><text y="-16" class="tag-label" x="1245.4352540969849">v0.2.0</text><g transform="translate(-50.44831192016601, 45.02743698120117) rotate(-45, 1300, 90)"><rect class="commit-label-bkg" x="1256.4890632629395" y="103.5" width="107.0218734741211" height="16"/><text x="1258.4890632629395" y="115" class="commit-label">aed7289 cinema phone</text></g><g transform="translate(-55.58424942016602, 49.62274948120117) rotate(-45, 1350, 90)"><rect class="commit-label-bkg" x="1299.7312507629395" y="103.5" width="120.5374984741211" height="16"/><text x="1301.7312507629395" y="115" class="commit-label">d3b07b5 change password</text></g><g transform="translate(-53.90223220825196, 48.117786712646485) rotate(-45, 1400, 90)"><rect class="commit-label-bkg" x="1351.9444313049316" y="103.5" width="116.11113739013672" height="16"/><text x="1353.9444313049316" y="115" class="commit-label">0fb3abc halls active bool</text></g><g transform="translate(-53.61003067016602, 47.85634323120117) rotate(-45, 1450, 90)"><rect class="commit-label-bkg" x="1402.3289070129395" y="103.5" width="115.3421859741211" height="16"/><text x="1404.3289070129395" y="115" class="commit-label">caa4158 PUT halls active</text></g><g transform="translate(-37.60475723266602, 33.53583541870117) rotate(-45, 1550, 0)"><rect class="commit-label-bkg" x="1523.3884773254395" y="13.5" width="73.2230453491211" height="16"/><text x="1525.3884773254395" y="25" class="commit-label">99df8e7 deploy</text></g><polygon class="tag-label-bkg" points="&#10;      1533.6125001907349,-17.2  &#10;      1533.6125001907349,-21.2&#10;      1541.6125001907349,-27.2&#10;      1578.3874998092651,-27.2&#10;      1578.3874998092651,-11.2&#10;      1541.6125001907349,-11.2"/><circle cy="-19.2" cx="1537.6125001907349" r="1.5" class="tag-hole"/><text y="-16" class="tag-label" x="1545.6125001907349">v0.2.1</text><g transform="translate(-54.93669082641602, 49.04335494995117) rotate(-45, 1600, 180)"><rect class="commit-label-bkg" x="1550.5833015441895" y="193.5" width="118.8333969116211" height="16"/><text x="1552.5833015441895" y="205" class="commit-label">978324c city + cinema fix</text></g><g transform="translate(-48.79694473266601, 43.54989791870117) rotate(-45, 1700, 0)"><rect class="commit-label-bkg" x="1658.6619148254395" y="13.5" width="102.6761703491211" height="16"/><text x="1660.6619148254395" y="25" class="commit-label">78b4654 npm start fix</text></g><polygon class="tag-label-bkg" points="&#10;      1683.4352540969849,-17.2  &#10;      1683.4352540969849,-21.2&#10;      1691.4352540969849,-27.2&#10;      1728.5647459030151,-27.2&#10;      1728.5647459030151,-11.2&#10;      1691.4352540969849,-11.2"/><circle cy="-19.2" cx="1687.4352540969849" r="1.5" class="tag-hole"/><text y="-16" class="tag-label" x="1695.4352540969849">v0.2.2</text><g transform="translate(-50.16472381591797, 44.77370025634766) rotate(-45, 1750, 0)"><rect class="commit-label-bkg" x="1706.862205505371" y="13.5" width="106.27558898925781" height="16"/><text x="1708.862205505371" y="25" class="commit-label">867609d health checks</text></g><polygon class="tag-label-bkg" points="&#10;      1733.4352540969849,-17.2  &#10;      1733.4352540969849,-21.2&#10;      1741.4352540969849,-27.2&#10;      1778.5647459030151,-27.2&#10;      1778.5647459030151,-11.2&#10;      1741.4352540969849,-11.2"/><circle cy="-19.2" cx="1737.4352540969849" r="1.5" class="tag-hole"/><text y="-16" class="tag-label" x="1745.4352540969849">v0.2.3</text><g transform="translate(-52.12194473266601, 46.52489791870117) rotate(-45, 1800, 0)"><rect class="commit-label-bkg" x="1754.2869148254395" y="13.5" width="111.4261703491211" height="16"/><text x="1756.2869148254395" y="25" class="commit-label">2660a9d pool import fix</text></g><polygon class="tag-label-bkg" points="&#10;      1783.4352540969849,-17.2  &#10;      1783.4352540969849,-21.2&#10;      1791.4352540969849,-27.2&#10;      1828.5647459030151,-27.2&#10;      1828.5647459030151,-11.2&#10;      1791.4352540969849,-11.2"/><circle cy="-19.2" cx="1787.4352540969849" r="1.5" class="tag-hole"/><text y="-16" class="tag-label" x="1795.4352540969849">v0.2.4</text><g transform="translate(-55.14109100341797, 49.226239318847654) rotate(-45, 1850, 0)"><rect class="commit-label-bkg" x="1800.314353942871" y="13.5" width="119.37129211425781" height="16"/><text x="1802.314353942871" y="25" class="commit-label">6455496 JWT + DB checks</text></g><polygon class="tag-label-bkg" points="&#10;      1833.4352540969849,-17.2  &#10;      1833.4352540969849,-21.2&#10;      1841.4352540969849,-27.2&#10;      1878.5647459030151,-27.2&#10;      1878.5647459030151,-11.2&#10;      1841.4352540969849,-11.2"/><circle cy="-19.2" cx="1837.4352540969849" r="1.5" class="tag-hole"/><text y="-16" class="tag-label" x="1845.4352540969849">v0.2.5</text><g transform="translate(-54.272731628417965, 48.449286193847655) rotate(-45, 1900, 270)"><rect class="commit-label-bkg" x="1851.456932067871" y="283.5" width="117.08613586425781" height="16"/><text x="1853.456932067871" y="295" class="commit-label">3956e77 client endpoints</text></g><g transform="translate(-45.97693084716797, 41.02672760009766) rotate(-45, 1950, 270)"><rect class="commit-label-bkg" x="1912.372459411621" y="283.5" width="95.25508117675781" height="16"/><text x="1914.372459411621" y="295" class="commit-label">f584d0b GET movies</text></g><g transform="translate(-49.93620254516602, 44.56923385620117) rotate(-45, 2000, 270)"><rect class="commit-label-bkg" x="1957.1628913879395" y="283.5" width="105.6742172241211" height="16"/><text x="1959.1628913879395" y="295" class="commit-label">95c781f GET showtime</text></g><g transform="translate(-41.19353240966797, 36.74684478759765) rotate(-45, 2050, 270)"><rect class="commit-label-bkg" x="2018.666404724121" y="283.5" width="82.66719055175781" height="16"/><text x="2020.666404724121" y="295" class="commit-label">e0b11ab client.ts</text></g><g transform="translate(-56.43620819091797, 50.38502838134766) rotate(-45, 2100, 270)"><rect class="commit-label-bkg" x="2048.610252380371" y="283.5" width="122.77949523925781" height="16"/><text x="2050.610252380371" y="295" class="commit-label">1d2468d GET movies filter</text></g><g transform="translate(-62.68357147216797, 55.974774475097654) rotate(-45, 2150, 270)"><rect class="commit-label-bkg" x="2090.390037536621" y="283.5" width="139.2199249267578" height="16"/><text x="2092.390037536621" y="295" class="commit-label">5fe0d70 GET showtimes 7days</text></g><polygon class="tag-label-bkg" points="&#10;      2183.435254096985,-17.2  &#10;      2183.435254096985,-21.2&#10;      2191.435254096985,-27.2&#10;      2228.564745903015,-27.2&#10;      2228.564745903015,-11.2&#10;      2191.435254096985,-11.2"/><circle cy="-19.2" cx="2187.435254096985" r="1.5" class="tag-hole"/><text y="-16" class="tag-label" x="2195.435254096985">v0.3.0</text><g transform="translate(-38.453005065917964, 34.29479400634766) rotate(-45, 2250, 360)"><rect class="commit-label-bkg" x="2222.272361755371" y="373.5" width="75.45527648925781" height="16"/><text x="2224.272361755371" y="385" class="commit-label">f9c0177 fix cors</text></g><polygon class="tag-label-bkg" points="&#10;      2283.612500190735,-17.2  &#10;      2283.612500190735,-21.2&#10;      2291.612500190735,-27.2&#10;      2328.387499809265,-27.2&#10;      2328.387499809265,-11.2&#10;      2291.612500190735,-11.2"/><circle cy="-19.2" cx="2287.612500190735" r="1.5" class="tag-hole"/><text y="-16" class="tag-label" x="2295.612500190735">v0.3.1</text><g transform="translate(-56.323024597167965, 50.283758850097655) rotate(-45, 2350, 450)"><rect class="commit-label-bkg" x="2298.759178161621" y="463.5" width="122.48164367675781" height="16"/><text x="2300.759178161621" y="475" class="commit-label">59aeb04 manage showings</text></g><g transform="translate(-53.83298553466797, 48.055829162597654) rotate(-45, 2450, 90)"><rect class="commit-label-bkg" x="2402.035545349121" y="103.5" width="115.92890930175781" height="16"/><text x="2404.035545349121" y="115" class="commit-label">f99a85d showtime prices</text></g><g transform="translate(-54.727321472167965, 48.856024475097655) rotate(-45, 2500, 90)"><rect class="commit-label-bkg" x="2450.858787536621" y="103.5" width="118.28242492675781" height="16"/><text x="2452.858787536621" y="115" class="commit-label">32592b4 fetch showtimes</text></g><polygon class="tag-label-bkg" points="&#10;      2533.435254096985,-17.2  &#10;      2533.435254096985,-21.2&#10;      2541.435254096985,-27.2&#10;      2578.564745903015,-27.2&#10;      2578.564745903015,-11.2&#10;      2541.435254096985,-11.2"/><circle cy="-19.2" cx="2537.435254096985" r="1.5" class="tag-hole"/><text y="-16" class="tag-label" x="2545.435254096985">v0.4.0</text><polygon class="tag-label-bkg" points="&#10;      2633.612500190735,-17.2  &#10;      2633.612500190735,-21.2&#10;      2641.612500190735,-27.2&#10;      2678.387499809265,-27.2&#10;      2678.387499809265,-11.2&#10;      2641.612500190735,-11.2"/><circle cy="-19.2" cx="2637.612500190735" r="1.5" class="tag-hole"/><text y="-16" class="tag-label" x="2645.612500190735">v0.4.1</text><g transform="translate(-46.05085098266601, 41.09286666870118) rotate(-45, 2700, 90)"><rect class="commit-label-bkg" x="2662.2751960754395" y="103.5" width="95.4496078491211" height="16"/><text x="2664.2751960754395" y="115" class="commit-label">23a2755 routers bug</text></g><g transform="translate(-58.13737442016602, 51.90712448120117) rotate(-45, 2750, 90)"><rect class="commit-label-bkg" x="2696.3718757629395" y="103.5" width="127.2562484741211" height="16"/><text x="2698.3718757629395" y="115" class="commit-label">3f3590c email confirmation</text></g><g transform="translate(-54.57702850341797, 48.72155181884765) rotate(-45, 2800, 90)"><rect class="commit-label-bkg" x="2751.056541442871" y="103.5" width="117.88691711425781" height="16"/><text x="2753.056541442871" y="115" class="commit-label">b68a557 websocket seats</text></g><g transform="translate(-44.13786270141602, 39.381245574951166) rotate(-45, 2850, 540)"><rect class="commit-label-bkg" x="2814.7922859191895" y="553.5" width="90.4154281616211" height="16"/><text x="2816.7922859191895" y="565" class="commit-label">676c343 add admin</text></g><g transform="translate(-42.00592910766601, 37.47372604370118) rotate(-45, 2900, 540)"><rect class="commit-label-bkg" x="2867.5974617004395" y="553.5" width="84.8050765991211" height="16"/><text x="2869.5974617004395" y="565" class="commit-label">5d7596e fix query</text></g><g transform="translate(-45.82604354858398, 40.891723175048824) rotate(-45, 2950, 540)"><rect class="commit-label-bkg" x="2912.5709953308105" y="553.5" width="94.8580093383789" height="16"/><text x="2914.5709953308105" y="565" class="commit-label">81817de users CRUD</text></g><polygon class="tag-label-bkg" points="&#10;      2983.435254096985,-17.2  &#10;      2983.435254096985,-21.2&#10;      2991.435254096985,-27.2&#10;      3028.564745903015,-27.2&#10;      3028.564745903015,-11.2&#10;      2991.435254096985,-11.2"/><circle cy="-19.2" cx="2987.435254096985" r="1.5" class="tag-hole"/><text y="-16" class="tag-label" x="2995.435254096985">v0.5.0</text><g transform="translate(-61.39186950683593, 54.819041137695315) rotate(-45, 3100, 90)"><rect class="commit-label-bkg" x="3042.089645385742" y="103.5" width="135.82070922851562" height="16"/><text x="3044.089645385742" y="115" class="commit-label">577a60c format package.json</text></g><polygon class="tag-label-bkg" points="&#10;      3133.435254096985,-17.2  &#10;      3133.435254096985,-21.2&#10;      3141.435254096985,-27.2&#10;      3178.564745903015,-27.2&#10;      3178.564745903015,-11.2&#10;      3141.435254096985,-11.2"/><circle cy="-19.2" cx="3137.435254096985" r="1.5" class="tag-hole"/><text y="-16" class="tag-label" x="3145.435254096985">v1.0.0</text><g transform="translate(-58.441969909667975, 52.17965728759766) rotate(-45, 3200, 0)"><rect class="commit-label-bkg" x="3145.971092224121" y="13.5" width="128.0578155517578" height="16"/><text x="3147.971092224121" y="25" class="commit-label">0e52b28 handler not router</text></g><polygon class="tag-label-bkg" points="&#10;      3183.612500190735,-17.2  &#10;      3183.612500190735,-21.2&#10;      3191.612500190735,-27.2&#10;      3228.387499809265,-27.2&#10;      3228.387499809265,-11.2&#10;      3191.612500190735,-11.2"/><circle cy="-19.2" cx="3187.612500190735" r="1.5" class="tag-hole"/><text y="-16" class="tag-label" x="3195.612500190735">v1.0.1</text><g transform="translate(-52.77314178466797, 47.10754791259765) rotate(-45, 3250, 630)"><rect class="commit-label-bkg" x="3203.430076599121" y="643.5" width="113.13984680175781" height="16"/><text x="3205.430076599121" y="655" class="commit-label">b87436b showtime price</text></g><g transform="translate(-40.432491607666016, 36.06591354370117) rotate(-45, 3350, 0)"><rect class="commit-label-bkg" x="3319.6677742004395" y="13.5" width="80.6644515991211" height="16"/><text x="3321.6677742004395" y="25" class="commit-label">728047f host png</text></g><polygon class="tag-label-bkg" points="&#10;      3333.435254096985,-17.2  &#10;      3333.435254096985,-21.2&#10;      3341.435254096985,-27.2&#10;      3378.564745903015,-27.2&#10;      3378.564745903015,-11.2&#10;      3341.435254096985,-11.2"/><circle cy="-19.2" cx="3337.435254096985" r="1.5" class="tag-hole"/><text y="-16" class="tag-label" x="3345.435254096985">v1.1.0</text><g transform="translate(-51.15739959716797, 45.66188385009766) rotate(-45, 3400, 720)"><rect class="commit-label-bkg" x="3355.556053161621" y="733.5" width="108.88789367675781" height="16"/><text x="3357.556053161621" y="745" class="commit-label">d112488 recreate seats</text></g><g transform="translate(-47.55779022216797, 42.44118072509766) rotate(-45, 3450, 720)"><rect class="commit-label-bkg" x="3410.292381286621" y="733.5" width="99.41523742675781" height="16"/><text x="3412.292381286621" y="745" class="commit-label">50dcaed fix endpoint</text></g><g transform="translate(-45.477734375, 40.580078125) rotate(-45, 3500, 720)"><rect class="commit-label-bkg" x="3463.029296875" y="733.5" width="93.94140625" height="16"/><text x="3465.029296875" y="745" class="commit-label">1ab7dd5 seat status</text></g><g transform="translate(-29.951171875, 26.687890625) rotate(-45, 3600, 810)"><rect class="commit-label-bkg" x="3583.458984375" y="823.5" width="53.08203125" height="16"/><text x="3585.458984375" y="835" class="commit-label">55feb54 qr</text></g><polygon class="tag-label-bkg" points="&#10;      3633.612500190735,-17.2  &#10;      3633.612500190735,-21.2&#10;      3641.612500190735,-27.2&#10;      3678.387499809265,-27.2&#10;      3678.387499809265,-11.2&#10;      3641.612500190735,-11.2"/><circle cy="-19.2" cx="3637.612500190735" r="1.5" class="tag-hole"/><text y="-16" class="tag-label" x="3645.612500190735">v1.1.1</text><g transform="translate(-52.73246932983398, 47.07115676879883) rotate(-45, 3700, 0)"><rect class="commit-label-bkg" x="3653.4835929870605" y="13.5" width="113.0328140258789" height="16"/><text x="3655.4835929870605" y="25" class="commit-label">4731cc4 fix get cinemas</text></g><polygon class="tag-label-bkg" points="&#10;      3683.435254096985,-17.2  &#10;      3683.435254096985,-21.2&#10;      3691.435254096985,-27.2&#10;      3728.564745903015,-27.2&#10;      3728.564745903015,-11.2&#10;      3691.435254096985,-11.2"/><circle cy="-19.2" cx="3687.435254096985" r="1.5" class="tag-hole"/><text y="-16" class="tag-label" x="3695.435254096985">v1.1.2</text></g></svg>